<?xml version="1.0" encoding="utf-8"?>
<!-- Generator: Adobe Illustrator 22.1.0, SVG Export Plug-In . SVG Version: 6.00 Build 0)  -->
<svg version="1.1" id="Layer_1" xmlns="http://www.w3.org/2000/svg" xmlns:xlink="http://www.w3.org/1999/xlink" x="0px" y="0px"
	 viewBox="0 0 504 249" style="enable-background:new 0 0 504 249;" xml:space="preserve">
<style type="text/css">
	.st0{fill:#FFFFFF;}
</style>
<g>
	<g>
		<path class="st0" d="M300.2,108.6c-2.3,1.1-6.9,2.3-12.8,2.3c-13.6,0-23.9-8.6-23.9-24.4c0-15.1,10.2-25.4,25.2-25.4
			c6,0,9.8,1.3,11.5,2.1l-1.5,5.1c-2.4-1.1-5.7-2-9.7-2c-11.3,0-18.8,7.2-18.8,19.9c0,11.8,6.8,19.4,18.6,19.4c3.8,0,7.7-0.8,10.2-2
			L300.2,108.6z"/>
		<path class="st0" d="M326.5,110.2l-0.5-4.4h-0.2c-1.9,2.7-5.7,5.2-10.6,5.2c-7,0-10.6-4.9-10.6-10c0-8.4,7.5-13,20.9-12.9v-0.7
			c0-2.9-0.8-8-7.9-8c-3.2,0-6.6,1-9,2.6l-1.4-4.2c2.9-1.9,7-3.1,11.4-3.1c10.6,0,13.2,7.2,13.2,14.2v13c0,3,0.1,5.9,0.6,8.3H326.5z
			 M325.5,92.5c-6.9-0.1-14.7,1.1-14.7,7.8c0,4.1,2.7,6,5.9,6c4.5,0,7.4-2.9,8.4-5.8c0.2-0.6,0.4-1.4,0.4-2V92.5z"/>
		<path class="st0" d="M340.9,103.8c1.9,1.2,5.2,2.5,8.3,2.5c4.6,0,6.7-2.3,6.7-5.2c0-3-1.8-4.7-6.4-6.4c-6.2-2.2-9.2-5.7-9.2-9.8
			c0-5.6,4.5-10.2,12-10.2c3.5,0,6.6,1,8.5,2.1l-1.6,4.6c-1.4-0.9-3.9-2-7.1-2c-3.7,0-5.8,2.1-5.8,4.7c0,2.9,2.1,4.2,6.6,5.9
			c6,2.3,9.1,5.3,9.1,10.5c0,6.1-4.7,10.4-13,10.4c-3.8,0-7.3-0.9-9.7-2.4L340.9,103.8z"/>
		<path class="st0" d="M389.4,110.2l-0.5-4.4h-0.2c-1.9,2.7-5.7,5.2-10.6,5.2c-7,0-10.6-4.9-10.6-10c0-8.4,7.5-13,20.9-12.9v-0.7
			c0-2.9-0.8-8-7.9-8c-3.2,0-6.6,1-9,2.6l-1.4-4.2c2.9-1.9,7-3.1,11.4-3.1c10.6,0,13.2,7.2,13.2,14.2v13c0,3,0.1,5.9,0.6,8.3H389.4z
			 M388.4,92.5c-6.9-0.1-14.7,1.1-14.7,7.8c0,4.1,2.7,6,5.9,6c4.5,0,7.4-2.9,8.4-5.8c0.2-0.6,0.4-1.4,0.4-2V92.5z"/>
		<path class="st0" d="M449.8,59.3v41.9c0,3.1,0.1,6.6,0.3,9h-5.7l-0.3-6H444c-1.9,3.9-6.2,6.8-11.8,6.8c-8.4,0-14.8-7.1-14.8-17.6
			c-0.1-11.5,7.1-18.6,15.5-18.6c5.3,0,8.9,2.5,10.5,5.3h0.1V59.3H449.8z M443.5,89.6c0-0.8-0.1-1.9-0.3-2.7c-0.9-4-4.4-7.3-9.1-7.3
			c-6.5,0-10.4,5.7-10.4,13.4c0,7,3.4,12.8,10.2,12.8c4.2,0,8.1-2.8,9.2-7.5c0.2-0.9,0.3-1.7,0.3-2.7V89.6z"/>
		<path class="st0" d="M479.5,110.2l-0.5-4.4h-0.2c-1.9,2.7-5.7,5.2-10.6,5.2c-7,0-10.6-4.9-10.6-10c0-8.4,7.5-13,20.9-12.9v-0.7
			c0-2.9-0.8-8-7.9-8c-3.2,0-6.6,1-9,2.6l-1.4-4.2c2.9-1.9,7-3.1,11.4-3.1c10.6,0,13.2,7.2,13.2,14.2v13c0,3,0.1,5.9,0.6,8.3H479.5z
			 M478.6,92.5c-6.9-0.1-14.7,1.1-14.7,7.8c0,4.1,2.7,6,5.9,6c4.5,0,7.4-2.9,8.4-5.8c0.2-0.6,0.4-1.4,0.4-2V92.5z"/>
		<path class="st0" d="M300.2,194.6c-2.3,1.1-6.9,2.3-12.8,2.3c-13.6,0-23.9-8.6-23.9-24.4c0-15.1,10.2-25.4,25.2-25.4
			c6,0,9.8,1.3,11.5,2.1l-1.5,5.1c-2.4-1.1-5.7-2-9.7-2c-11.3,0-18.8,7.2-18.8,19.9c0,11.8,6.8,19.4,18.6,19.4c3.8,0,7.7-0.8,10.2-2
			L300.2,194.6z"/>
		<path class="st0" d="M307.5,172.3c0-4.1-0.1-7.6-0.3-10.8h5.5l0.2,6.8h0.3c1.6-4.7,5.4-7.6,9.6-7.6c0.7,0,1.2,0.1,1.8,0.2v5.9
			c-0.6-0.1-1.3-0.2-2.1-0.2c-4.4,0-7.6,3.4-8.5,8.1c-0.1,0.9-0.3,1.9-0.3,2.9v18.5h-6.2V172.3z"/>
		<path class="st0" d="M338.3,151.8c0.1,2.2-1.5,3.9-4,3.9c-2.2,0-3.8-1.7-3.8-3.9c0-2.2,1.6-3.9,3.9-3.9
			C336.8,147.8,338.3,149.5,338.3,151.8z M331.3,196.2v-34.7h6.3v34.7H331.3z"/>
		<path class="st0" d="M367.2,196.2l-0.5-4.4h-0.2c-1.9,2.7-5.7,5.2-10.6,5.2c-7,0-10.6-4.9-10.6-10c0-8.4,7.5-13,20.9-12.9v-0.7
			c0-2.9-0.8-8-7.9-8c-3.2,0-6.6,1-9,2.6l-1.4-4.2c2.9-1.9,7-3.1,11.4-3.1c10.6,0,13.2,7.2,13.2,14.2v13c0,3,0.1,5.9,0.6,8.3H367.2z
			 M366.3,178.5c-6.9-0.1-14.7,1.1-14.7,7.8c0,4.1,2.7,6,5.9,6c4.5,0,7.4-2.9,8.4-5.8c0.2-0.6,0.4-1.4,0.4-2V178.5z"/>
		<path class="st0" d="M382.6,170.9c0-3.6-0.1-6.5-0.3-9.4h5.6l0.4,5.7h0.1c1.7-3.3,5.7-6.5,11.5-6.5c4.8,0,12.3,2.9,12.3,14.8v20.7
			h-6.3v-20c0-5.6-2.1-10.2-8-10.2c-4.2,0-7.4,2.9-8.5,6.4c-0.3,0.8-0.4,1.9-0.4,2.9v20.9h-6.3V170.9z"/>
		<path class="st0" d="M447,194.9c-1.5,0.8-4.8,1.9-9,2l-1.9,2.9c2.7,0.4,5,2.2,5,4.9c0,4.2-3.5,5.8-7.5,5.8c-1.8,0-3.7-0.5-4.9-1.2
			l1.1-3.1c1.1,0.7,2.6,1.1,3.9,1.1c1.6,0,3.1-0.6,3.1-2.3c-0.1-1.9-2.2-2.7-5.6-3l3-5.2c-8.9-1.1-14.5-7.9-14.5-17.6
			c0-10.7,7.3-18.4,18.6-18.4c3.7,0,7,0.9,8.7,1.8l-1.4,4.9c-1.5-0.9-3.9-1.6-7.3-1.6c-8,0-12.3,5.9-12.3,13.1c0,8,5.2,13,12,13
			c3.6,0,5.9-0.9,7.7-1.7L447,194.9z"/>
		<path class="st0" d="M473.6,196.2l-0.5-4.4h-0.2c-1.9,2.7-5.7,5.2-10.6,5.2c-7,0-10.6-4.9-10.6-10c0-8.4,7.5-13,20.9-12.9v-0.7
			c0-2.9-0.8-8-7.9-8c-3.2,0-6.6,1-9,2.6l-1.4-4.2c2.9-1.9,7-3.1,11.4-3.1c10.6,0,13.2,7.2,13.2,14.2v13c0,3,0.1,5.9,0.6,8.3H473.6z
			 M472.7,178.5c-6.9-0.1-14.7,1.1-14.7,7.8c0,4.1,2.7,6,5.9,6c4.5,0,7.4-2.9,8.4-5.8c0.2-0.6,0.4-1.4,0.4-2V178.5z"/>
	</g>
	<g>
		<g>
			<g>
				<path class="st0" d="M215,97.9c-10.8-29.7-37.6-51.4-68.9-56.6c-0.5-0.2-1.1-0.3-1.7-0.4c-0.4,0-0.8,0-1.2,0
					c-3.9-0.5-7.8-0.8-11.8-0.8C94,40,60.2,63.6,47.8,97.9C32,98.1,19.1,111,19.1,127c0,15.9,12.9,28.9,28.7,29.1
					c12.4,34.3,46.2,57.9,83.6,57.9c14.6,0,28.6-3.6,41-10c-2.8-2.5-5.6-5.2-8.1-8.2c-10.1,4.7-21.3,7.3-32.9,7.3
					c-34.2,0-64.8-22.3-74.6-54.3l-1.4-4.5l-4.6,0.7c-1,0.2-1.9,0.2-2.7,0.2c-10,0-18.2-8.2-18.2-18.2c0-10,8.2-18.2,18.2-18.2
					c0.8,0,1.6,0.1,2.7,0.2l4.6,0.7l1.4-4.5c6.6-21.7,22.9-38.9,43.3-47.8C95.5,67.5,101.7,80,112,84.8c12.9,6,33.7,6.8,42.4-6.3
					c4-5.9,0.4-13.4-4.3-17.5c-6.7-5.7-16.4-6.5-24.4-3.3c-6.4,2.6-3.6,13.1,2.9,10.5c4.7-1.9,9-2,13.6,0.5c6.2,3.4,0.5,7.3-3.9,8.6
					c-8.1,2.3-20.1,0.4-26.4-5.3c-8-7.2,2.3-15.3,8.7-17.6c6.9-2.4,14.5-3,21.8-2.7c29.6,4.2,54.9,25,63.6,53.5l1.4,4.5l4.6-0.7
					c1-0.2,1.9-0.2,2.7-0.2c10,0,18.2,8.2,18.2,18.2c0,10-8.2,18.2-18.2,18.2c-0.8,0-1.6-0.1-2.7-0.2l-4.6-0.7l-1.4,4.5
					c-0.5,1.6-1.1,3.1-1.6,4.7c1.6-0.4,3.4-0.6,5.1-0.6c3.9,0,7.5,1,10.7,2.7c13.4-2.6,23.6-14.4,23.6-28.5
					C243.8,111,230.9,98.1,215,97.9z"/>
				<path class="st0" d="M108.5,123.2c-9.3,0-9.3,14.5,0,14.5S117.8,123.2,108.5,123.2z"/>
				<path class="st0" d="M154.4,122.3c-9.3,0-9.3,14.5,0,14.5C163.7,136.8,163.7,122.3,154.4,122.3z"/>
				<path class="st0" d="M131.4,174.1c11.8,0,21.4-9.6,21.4-21.4c0-3-2.4-5.4-5.4-5.4c-3,0-5.4,2.4-5.4,5.4
					c0,5.8-4.7,10.5-10.5,10.5c-5.8,0-10.5-4.7-10.5-10.5c0-3-2.4-5.4-5.4-5.4c-3,0-5.4,2.4-5.4,5.4
					C110.1,164.5,119.6,174.1,131.4,174.1z"/>
				<path class="st0" d="M193.9,162.7c-21.9-12.6-52,22.7,0,49.3C246.4,185,215.1,150.5,193.9,162.7z M193.9,199.6
					c-26-15.4-18.7-28.6-9.6-28.6c4.3,0,6.4,2.9,9.6,5.9c3.2-3,5.3-5.9,9.6-5.9C211.5,171,220.9,183.6,193.9,199.6z"/>
			</g>
		</g>
		<g>
		</g>
		<g>
		</g>
		<g>
		</g>
		<g>
		</g>
		<g>
		</g>
		<g>
		</g>
		<g>
		</g>
		<g>
		</g>
		<g>
		</g>
		<g>
		</g>
		<g>
		</g>
		<g>
		</g>
		<g>
		</g>
		<g>
		</g>
		<g>
		</g>
	</g>
</g>
</svg>
