<?xml version="1.0" encoding="iso-8859-1"?>
<!-- Generator: Adobe Illustrator 19.0.0, SVG Export Plug-In . SVG Version: 6.00 Build 0)  -->
<svg version="1.1" id="Capa_1" xmlns="http://www.w3.org/2000/svg" xmlns:xlink="http://www.w3.org/1999/xlink" x="0px" y="0px"
	 viewBox="0 0 486.554 486.554" style="enable-background:new 0 0 486.554 486.554;" xml:space="preserve">
<linearGradient id="SVGID_1_" gradientUnits="userSpaceOnUse" x1="352.1452" y1="495.2796" x2="352.1452" y2="15.2796" gradientTransform="matrix(1 0 0 -1 0 488.5592)">
	<stop  offset="0" style="stop-color:#00EFD1"/>
	<stop  offset="1" style="stop-color:#00ACEA"/>
</linearGradient>
<path style="fill:url(#SVGID_1_);" d="M352.145,149.969c-28.63,0-51.84,23.21-51.84,51.84s23.21,51.84,51.84,51.84
	s51.84-23.21,51.84-51.84c0,0,0-0.001,0-0.001C403.974,173.182,380.771,149.979,352.145,149.969z M326.225,232.912
	c-5.726,0-10.368-4.642-10.368-10.368s4.642-10.368,10.368-10.368c5.726,0,10.368,4.642,10.368,10.368
	C336.576,228.262,331.944,232.894,326.225,232.912z M362.513,206.992c-11.452,0-20.736-9.284-20.736-20.736
	c0-11.452,9.284-20.736,20.736-20.736c11.452,0,20.736,9.284,20.736,20.736c0.003,11.449-9.275,20.733-20.724,20.736
	C362.521,206.992,362.517,206.992,362.513,206.992L362.513,206.992z"/>
<g>
	
		<linearGradient id="SVGID_2_" gradientUnits="userSpaceOnUse" x1="134.4192" y1="495.2796" x2="134.4192" y2="15.2796" gradientTransform="matrix(1 0 0 -1 0 488.5592)">
		<stop  offset="0" style="stop-color:#00EFD1"/>
		<stop  offset="1" style="stop-color:#00ACEA"/>
	</linearGradient>
	<path style="fill:url(#SVGID_2_);" d="M186.259,201.808c0-28.63-23.21-51.84-51.84-51.84c-28.63,0-51.84,23.21-51.84,51.84
		s23.21,51.84,51.84,51.84C163.045,253.637,186.249,230.434,186.259,201.808L186.259,201.808z M108.499,232.908
		c-5.726,0-10.368-4.642-10.368-10.368c0-5.726,4.642-10.368,10.368-10.368c5.726,0,10.368,4.642,10.368,10.368
		c-0.015,5.72-4.648,10.354-10.368,10.372L108.499,232.908z M144.787,206.988c-11.452,0-20.736-9.284-20.736-20.736
		s9.284-20.736,20.736-20.736s20.736,9.284,20.736,20.736v0c0.006,11.449-9.271,20.734-20.72,20.74c-0.005,0-0.011,0-0.016,0
		V206.988z"/>
	
		<linearGradient id="SVGID_3_" gradientUnits="userSpaceOnUse" x1="243.2769" y1="495.2796" x2="243.2769" y2="15.2796" gradientTransform="matrix(1 0 0 -1 0 488.5592)">
		<stop  offset="0" style="stop-color:#00EFD1"/>
		<stop  offset="1" style="stop-color:#00ACEA"/>
	</linearGradient>
	<path style="fill:url(#SVGID_3_);" d="M243.282,0.002C108.928-0.005,0.007,108.905,0,243.259
		c-0.003,64.529,25.632,126.416,71.264,172.042c95.004,95.003,249.035,95.002,344.038-0.002s95.002-249.035-0.002-344.038
		C369.779,25.488,307.838-0.172,243.282,0.002L243.282,0.002z M243.282,466.558c-123.116,0-223.278-100.162-223.278-223.278
		S120.166,20.002,243.282,20.002S466.56,120.164,466.56,243.28S366.398,466.558,243.282,466.558z"/>
	
		<linearGradient id="SVGID_4_" gradientUnits="userSpaceOnUse" x1="243.2822" y1="495.2796" x2="243.2822" y2="15.2796" gradientTransform="matrix(1 0 0 -1 0 488.5592)">
		<stop  offset="0" style="stop-color:#00EFD1"/>
		<stop  offset="1" style="stop-color:#00ACEA"/>
	</linearGradient>
	<path style="fill:url(#SVGID_4_);" d="M243.282,329.39c-25.741,0.036-50.913-7.57-72.328-21.853l-15.672-10.379v29.065
		c0,48.391,39.609,87.76,88,87.76s88-39.369,88-87.76v-29.065l-15.672,10.379C294.195,321.82,269.023,329.425,243.282,329.39z
		 M243.282,393.983c-34.608-0.043-63.639-26.124-67.376-60.53c42.404,21.249,92.348,21.249,134.752,0
		c-3.739,34.405-32.769,60.484-67.376,60.527L243.282,393.983z"/>
	
		<linearGradient id="SVGID_5_" gradientUnits="userSpaceOnUse" x1="115.8767" y1="495.2796" x2="115.8767" y2="15.2796" gradientTransform="matrix(1 0 0 -1 0 488.5592)">
		<stop  offset="0" style="stop-color:#00EFD1"/>
		<stop  offset="1" style="stop-color:#00ACEA"/>
	</linearGradient>
	<path style="fill:url(#SVGID_5_);" d="M147.024,125.362l6.826-18.8c-30.749-11.106-64.692,4.724-75.947,35.418l18.787,6.86
		C104.147,128.494,126.644,118,147.024,125.362z"/>
	
		<linearGradient id="SVGID_6_" gradientUnits="userSpaceOnUse" x1="370.6252" y1="495.2796" x2="370.6252" y2="15.2796" gradientTransform="matrix(1 0 0 -1 0 488.5592)">
		<stop  offset="0" style="stop-color:#00EFD1"/>
		<stop  offset="1" style="stop-color:#00ACEA"/>
	</linearGradient>
	<path style="fill:url(#SVGID_6_);" d="M332.468,106.907l7.006,18.732c20.315-7.556,42.918,2.713,50.591,22.983l18.717-7.052
		C397.208,110.992,363.11,95.504,332.468,106.907L332.468,106.907z"/>
</g>
<g>
</g>
<g>
</g>
<g>
</g>
<g>
</g>
<g>
</g>
<g>
</g>
<g>
</g>
<g>
</g>
<g>
</g>
<g>
</g>
<g>
</g>
<g>
</g>
<g>
</g>
<g>
</g>
<g>
</g>
</svg>
